# xmcd CD database file
#
# Track frame offsets:
#	150
#	19200
#	36525
#	51975
#	69900
#	94800
#	112725
#	131475
#	148575
#	164175
#
# Disc length: 2726 seconds
#
# Revision: 1
# Processed by: cddbd v1.5.2PL0 Copyright (c) Steve Scherf et al.
# Submitted via: CDex 1.70beta2
#
DISCID=8f0aa40a
DTITLE=George Baker Selection - Santa Lucia By Night
DYEAR=1989
DGENRE=Pop
TTITLE0=Santa Lucia By Night
TTITLE1=Tell Me Why
TTITLE2=I Love You
TTITLE3=Before The Next Teardrop Falls
TTITLE4=Without You
TTITLE5=True Love
TTITLE6=Manolito
TTITLE7=Jenny
TTITLE8=Maya
TTITLE9=The Fisherman
EXTD=YEAR: 1989
EXTT0=
EXTT1=
EXTT2=
EXTT3=
EXTT4=
EXTT5=
EXTT6=
EXTT7=
EXTT8=
EXTT9=
PLAYORDER=
